<svg width="35" height="35" viewBox="0 0 35 35" fill="none" xmlns="http://www.w3.org/2000/svg">
<g clip-path="url(#clip0_117_7179)">
<rect width="35" height="35" rx="7.20588" fill="#0B5FAB"/>
<path fill-rule="evenodd" clip-rule="evenodd" d="M19.8333 8.39794C20.3156 8.27438 20.8126 8.21305 21.3105 8.21488C24.4004 8.23044 26.8726 10.7511 26.8634 13.7861V24.0289C26.8634 24.0948 26.8479 24.1606 26.8177 24.2201C26.7884 24.2796 26.7444 24.3309 26.6914 24.3721L23.5913 26.685C23.5264 26.7316 23.4495 26.76 23.3699 26.7673C23.2902 26.7737 23.2097 26.7591 23.1383 26.7252C23.066 26.6895 23.0047 26.6364 22.9616 26.5696C22.9186 26.5037 22.8948 26.4278 22.893 26.3491L22.7072 13.7797C22.7072 13.7797 22.7099 13.6122 22.6944 13.3404C22.693 13.3228 22.6917 13.3042 22.6904 13.2853L22.6904 13.2852L22.6904 13.2851C22.6883 13.2547 22.6862 13.2236 22.6834 13.1948L22.6805 13.1651C22.6766 13.1256 22.6724 13.0826 22.6688 13.0338C22.6651 12.9833 22.6595 12.9389 22.6537 12.8918L22.6537 12.8917L22.6495 12.858C22.6395 12.7656 22.6267 12.6695 22.6102 12.5697C22.601 12.502 22.5891 12.4333 22.5763 12.3638C22.5727 12.3418 22.5678 12.3199 22.563 12.298L22.5629 12.2979C22.5593 12.2814 22.5557 12.2649 22.5525 12.2485C22.644 12.4059 22.6999 12.5743 22.709 12.7509L22.7089 12.7475L22.7089 12.7474L22.7086 12.7421C22.6982 12.5684 22.6427 12.4028 22.5526 12.2478C22.4675 12.1041 22.3531 11.9714 22.2075 11.8579C21.9 11.6209 21.4881 11.49 21.0607 11.4927C20.6342 11.4946 20.2251 11.6319 19.9212 11.8717C19.6173 12.1142 19.4434 12.441 19.4352 12.7842V15.3552C19.4352 15.432 19.3949 15.5044 19.329 15.5446L15.8171 17.6928C15.6698 17.7824 15.4794 17.6763 15.4794 17.5033V12.8757C15.4831 11.9293 15.8446 11.0058 16.5155 10.2278C17.1864 9.45078 18.1355 8.85494 19.2375 8.51996C19.2642 8.51139 19.292 8.50502 19.3197 8.49864C19.3394 8.49411 19.3591 8.48958 19.3784 8.48426C19.3967 8.48655 19.4144 8.48952 19.432 8.4925L19.432 8.4925L19.432 8.4925C19.4496 8.49547 19.4672 8.49845 19.4855 8.50074L19.4868 8.50094L19.5098 8.49362C19.6172 8.45951 19.7252 8.42516 19.8333 8.39794ZM15.5244 26.641C15.5249 26.6411 15.5255 26.6412 15.526 26.6413C15.5445 26.6439 15.5628 26.647 15.5812 26.6501C15.601 26.6534 15.6209 26.6567 15.6413 26.6596C15.6642 26.6529 15.6873 26.6474 15.7104 26.6419C15.7379 26.6353 15.7654 26.6287 15.7924 26.6202C16.8925 26.2843 17.8398 25.6876 18.5089 24.9114C19.1779 24.1334 19.5376 23.2127 19.5413 22.2672V17.6396C19.5413 17.4666 19.3518 17.3596 19.2036 17.4502L15.6917 19.5974C15.6258 19.6377 15.5855 19.709 15.5855 19.7868L15.5837 22.3542C15.5819 22.6782 15.4327 22.9894 15.1645 23.2301C14.8954 23.4699 14.5256 23.6227 14.1257 23.6584C13.7257 23.6941 13.323 23.609 12.9953 23.4223C12.7656 23.2914 12.5871 23.1129 12.4681 22.9106C12.4169 22.8255 12.3748 22.7367 12.3482 22.6425C12.3318 22.5706 12.3218 22.5015 12.3154 22.4503L12.3153 22.4485C12.3217 22.4998 12.3318 22.5694 12.3483 22.6417C12.3748 22.7359 12.4169 22.8247 12.4682 22.9098C12.4638 22.8873 12.4587 22.8649 12.4537 22.8425L12.4537 22.8425C12.4463 22.8095 12.4389 22.7765 12.4334 22.7433C12.4206 22.6737 12.4096 22.6041 12.3995 22.5355C12.384 22.4357 12.3712 22.3396 12.3602 22.2463C12.3529 22.185 12.3474 22.131 12.341 22.0678L12.3401 22.0576L12.34 22.0574L12.34 22.0573C12.335 21.9997 12.3306 21.9507 12.3263 21.9067C12.3217 21.8582 12.319 21.806 12.3172 21.7594C12.2998 21.4848 12.3025 21.3155 12.3025 21.3155L12.1167 8.63993C12.1158 8.5603 12.092 8.48251 12.049 8.41569C12.006 8.34796 11.9447 8.29488 11.8733 8.25918C11.801 8.22349 11.7204 8.20884 11.6408 8.21708C11.5612 8.22349 11.4843 8.25186 11.4202 8.30037L8.32203 10.6343C8.26895 10.6737 8.22593 10.7267 8.19573 10.7871C8.16552 10.8457 8.15088 10.9125 8.15088 10.9794V21.31C8.15088 24.3697 10.6194 26.9141 13.7056 26.9279C14.2154 26.9297 14.7234 26.8656 15.2158 26.7347C15.3205 26.7065 15.4225 26.6738 15.5244 26.641ZM12.3153 22.4485C12.3144 22.4028 12.3144 22.3735 12.3144 22.3735V22.4385C12.3144 22.4399 12.3147 22.4417 12.3149 22.4435C12.3151 22.4453 12.3153 22.4472 12.3153 22.4485ZM11.2902 23.3208V23.3986V23.3995C11.2912 23.4023 11.2921 23.4068 11.2921 23.4105C11.2902 23.3556 11.2902 23.3208 11.2902 23.3208Z" fill="white"/>
</g>
<defs>
<clipPath id="clip0_117_7179">
<rect width="35" height="35" fill="white"/>
</clipPath>
</defs>
</svg>
