<svg width="146" height="35" viewBox="0 0 146 35" fill="none" xmlns="http://www.w3.org/2000/svg">
<path d="M54.4313 11.6553C53.8598 10.7007 53.0146 9.93905 52.0049 9.46978C50.9295 8.94096 49.6266 8.67699 48.0952 8.67699H40.7948V28.4762H44.7667V20.8745H48.0952C49.7145 20.8745 51.0593 20.591 52.1294 20.024C53.1985 19.4552 53.9833 18.7095 54.4828 17.7834H54.4864C54.9903 16.8386 55.249 15.7828 55.2392 14.7136C55.2294 13.6417 54.9512 12.5912 54.4313 11.6553ZM50.3562 16.9186C49.8265 17.4172 49.0133 17.6678 47.9157 17.6678H44.7667V11.9059H47.9157C50.0718 11.9059 51.1499 12.8702 51.1499 14.8007C51.1508 15.709 50.8868 16.4156 50.3562 16.9186Z" fill="#012150"/>
<path d="M69.3627 13.3137C70.3004 13.847 71.0567 14.6478 71.5349 15.6121C72.0539 16.6262 72.3134 17.8412 72.3134 19.257V28.4771H68.3433V19.7982C68.3433 18.5495 68.0313 17.5896 67.4065 16.9195C66.7817 16.2476 65.9311 15.9116 64.8539 15.9116C63.7767 15.9116 62.8898 16.2476 62.2569 16.9195C61.6241 17.5896 61.3068 18.5495 61.3068 19.7982V28.4771H57.3349V7.48516H61.3068V14.7189C61.8401 14.0194 62.544 13.4666 63.3501 13.1147C64.2407 12.7192 65.2059 12.5218 66.18 12.5343C67.291 12.5121 68.3886 12.7805 69.3636 13.3137H69.3627Z" fill="#012150"/>
<path d="M90.2152 28.4762H86.2183V26.4916C85.6939 27.184 85.0052 27.7341 84.2141 28.0941C83.3751 28.486 82.4597 28.6842 81.5345 28.6744C80.3995 28.6984 79.2779 28.43 78.2762 27.8968C77.3226 27.3679 76.5476 26.5663 76.049 25.5984C75.5059 24.5861 75.234 23.3818 75.234 21.982V12.7618H79.213V21.4131C79.213 22.6619 79.525 23.6218 80.148 24.2919C80.771 24.9638 81.6234 25.2998 82.7023 25.2998C83.7813 25.2998 84.6594 24.9638 85.2833 24.2919C85.9073 23.6218 86.2183 22.6619 86.2183 21.4131V12.7618H90.2152V28.4762Z" fill="#012150"/>
<path d="M106.671 14.3074C107.824 15.4886 108.401 17.139 108.401 19.2561V28.4762H104.429V19.7974C104.429 18.5486 104.117 17.5887 103.493 16.9186C102.868 16.2467 102.017 15.9107 100.939 15.9107C99.861 15.9107 98.9767 16.2467 98.3439 16.9186C97.7102 17.5887 97.3938 18.5486 97.392 19.7974V28.4762H93.4218V12.7627H97.392V14.7171C97.9297 14.0292 98.623 13.4799 99.4157 13.1146C100.265 12.7227 101.19 12.5245 102.126 12.5343C104.003 12.5343 105.517 13.1244 106.671 14.3083V14.3074Z" fill="#012150"/>
<path d="M122.783 7.48516V14.9455C122.202 14.1821 121.442 13.5742 120.57 13.1724C119.659 12.7307 118.66 12.5041 117.648 12.5058C116.35 12.4845 115.072 12.8338 113.964 13.5119C112.857 14.1901 111.965 15.1704 111.394 16.3356C110.759 17.5665 110.442 18.9761 110.442 20.5644C110.442 22.1526 110.759 23.5969 111.394 24.8358C111.975 26.0143 112.873 27.0107 113.985 27.711C115.074 28.3909 116.334 28.7447 117.617 28.7331C118.692 28.7571 119.755 28.5118 120.713 28.0248C121.556 27.5937 122.27 26.9476 122.783 26.1521V28.4763H126.812V7.48516H122.783ZM122.242 23.1018C121.891 23.7657 121.36 24.315 120.711 24.691C120.082 25.0545 119.367 25.2456 118.64 25.2429C117.925 25.2429 117.223 25.0465 116.614 24.6723C115.964 24.2786 115.435 23.716 115.082 23.0441C114.681 22.2806 114.48 21.43 114.498 20.567C114.477 19.7138 114.677 18.8668 115.08 18.1131C115.423 17.4688 115.936 16.9302 116.564 16.556C117.191 16.1827 117.909 15.9898 118.64 15.9952C119.368 15.9916 120.083 16.1827 120.713 16.548C121.361 16.924 121.892 17.475 122.244 18.1371H122.242C122.616 18.9104 122.811 19.7591 122.811 20.6186C122.811 21.478 122.616 22.3286 122.242 23.1018Z" fill="#012150"/>
<path d="M134.263 7.6629C134.143 7.37849 133.969 7.11986 133.748 6.903C133.268 6.47372 132.647 6.2373 132.003 6.2373C131.358 6.2373 130.738 6.47372 130.258 6.903C130.039 7.11986 129.863 7.37849 129.745 7.6629C129.626 7.94909 129.565 8.25305 129.565 8.56323C129.565 8.87341 129.626 9.17737 129.745 9.46178C129.863 9.74619 130.039 10.0048 130.258 10.2217C130.738 10.651 131.359 10.8874 132.003 10.8874C132.646 10.8874 133.268 10.651 133.748 10.2217C133.969 10.0048 134.143 9.74619 134.263 9.46178C134.382 9.17737 134.444 8.87163 134.444 8.56323C134.444 8.25482 134.382 7.94642 134.263 7.6629ZM129.99 12.7627V28.4762H133.954V12.7627H129.99Z" fill="#012150"/>
<path d="M141.791 16.0236V23.6271C141.791 24.1577 141.919 24.5381 142.174 24.7683C142.429 24.9967 142.859 25.1167 143.464 25.122H145.309V28.4682H142.813C139.466 28.4682 137.791 26.84 137.791 23.5809V16.0236H135.918V12.7645H137.791V8.86897H141.791V12.7565H145.309V16.0156L141.791 16.0236Z" fill="#012150"/>
<path d="M26.6902 0.482422H10.5661C9.17726 0.482422 7.8258 0.934982 6.71619 1.77164L2.66627 4.82486C1.06319 6.03317 0.120728 7.92432 0.120728 9.93194V27.323C0.120728 27.5942 0.12873 27.8663 0.167851 28.1348C0.692429 31.7811 3.84345 34.6325 7.69332 34.6565H24.1046C25.4934 34.6565 26.8449 34.2039 27.9536 33.3681L31.7475 30.5096C33.3505 29.3013 34.2939 27.4093 34.2939 25.4017V8.08614C34.2939 3.94286 30.9135 0.501093 26.6902 0.482422ZM19.1834 22.1288C19.1798 23.0473 18.8304 23.9417 18.1804 24.6975C17.5305 25.4515 16.6103 26.0312 15.5415 26.3575C15.4935 26.3726 15.4437 26.3815 15.3948 26.3957C15.3566 26.3904 15.3202 26.3832 15.2828 26.3779C15.1832 26.4099 15.0837 26.4419 14.9814 26.4695C14.5031 26.5966 14.0096 26.6589 13.5144 26.6571C10.5163 26.6438 8.11832 24.172 8.11832 21.1997V11.1643C8.11832 11.0993 8.13255 11.0344 8.16189 10.9775C8.19123 10.9189 8.23302 10.8673 8.28459 10.8291L11.2942 8.56181C11.3565 8.51469 11.4312 8.48713 11.5085 8.4809C11.5859 8.4729 11.6641 8.48713 11.7344 8.5218C11.8037 8.55648 11.8633 8.60805 11.9051 8.67384C11.9469 8.73875 11.97 8.81432 11.9709 8.89168L12.1513 21.205C12.1513 21.205 12.1487 21.3695 12.1656 21.6363C12.1674 21.6816 12.17 21.7323 12.1745 21.7794C12.1789 21.8247 12.1834 21.8754 12.1887 21.9359C12.1949 21.9972 12.2003 22.0497 12.2074 22.1093C12.218 22.2 12.2305 22.2933 12.2456 22.3902C12.2554 22.4569 12.266 22.5245 12.2785 22.5921C12.2874 22.6463 12.3016 22.6996 12.3123 22.7539C12.4279 22.9504 12.6012 23.1237 12.8244 23.2509C13.1427 23.4323 13.5339 23.515 13.9225 23.4803C14.311 23.4456 14.6702 23.2971 14.9316 23.0642C15.1921 22.8303 15.3371 22.528 15.3388 22.2133L15.3406 19.7193C15.3406 19.6437 15.3797 19.5744 15.4437 19.5353L18.8553 17.4494C18.9993 17.3614 19.1834 17.4654 19.1834 17.6335V22.1288ZM26.2963 23.8404C26.2963 23.9044 26.2812 23.9684 26.2518 24.0262C26.2234 24.084 26.1807 24.1338 26.1291 24.1738L23.1177 26.4206C23.0546 26.4659 22.9799 26.4935 22.9025 26.5006C22.8252 26.5068 22.7469 26.4926 22.6776 26.4597C22.6073 26.425 22.5478 26.3735 22.506 26.3086C22.4642 26.2445 22.4411 26.1707 22.4393 26.0943L22.2588 13.8841C22.2588 13.8841 22.2615 13.7214 22.2464 13.4573C22.2428 13.4128 22.2401 13.3613 22.2357 13.3159C22.2313 13.2697 22.2259 13.219 22.2215 13.1594C22.217 13.099 22.2099 13.0474 22.2028 12.9887C22.193 12.8989 22.1806 12.8056 22.1646 12.7086C22.1557 12.6429 22.1441 12.5762 22.1317 12.5086C22.1254 12.4713 22.1157 12.4339 22.1086 12.3966C22.0259 12.257 21.9147 12.1281 21.7734 12.0178C21.4746 11.7875 21.0745 11.6604 20.6593 11.663C20.245 11.6648 19.8475 11.7982 19.5523 12.0311C19.2572 12.2668 19.0882 12.5842 19.0802 12.9176V15.4151C19.0802 15.4898 19.0411 15.56 18.9771 15.5992L15.5656 17.6859C15.4224 17.7731 15.2375 17.6699 15.2375 17.5019V13.0065C15.241 12.0872 15.5922 11.19 16.2439 10.4343C16.8957 9.67943 17.8177 9.10062 18.8882 8.7752C18.9326 8.76098 18.9798 8.75297 19.0251 8.74053C19.0607 8.74497 19.0936 8.75208 19.1291 8.75653C19.2412 8.72097 19.3541 8.68451 19.467 8.65606C19.9356 8.53603 20.4183 8.47646 20.902 8.47824C23.9037 8.49335 26.3052 10.942 26.2963 13.8903V23.8404Z" fill="#012150"/>
<rect x="0.200684" y="0.5" width="34" height="34" rx="7" fill="#012150"/>
<path fill-rule="evenodd" clip-rule="evenodd" d="M19.467 8.65638C19.9356 8.53635 20.4184 8.47678 20.902 8.47855C23.9037 8.49367 26.3052 10.9423 26.2963 13.8906V23.8407C26.2963 23.9047 26.2812 23.9687 26.2519 24.0265C26.2234 24.0843 26.1807 24.1341 26.1292 24.1741L23.1177 26.4209C23.0546 26.4663 22.9799 26.4938 22.9026 26.5009C22.8252 26.5072 22.747 26.4929 22.6776 26.46C22.6074 26.4254 22.5478 26.3738 22.506 26.3089C22.4642 26.2449 22.4411 26.1711 22.4393 26.0946L22.2588 13.8844C22.2588 13.8844 22.2615 13.7217 22.2464 13.4576C22.245 13.4405 22.2438 13.4224 22.2425 13.404C22.2405 13.3744 22.2385 13.3442 22.2357 13.3162L22.2329 13.2873L22.2329 13.2872L22.2329 13.2872C22.2291 13.2488 22.225 13.2071 22.2215 13.1597C22.2179 13.1108 22.2125 13.0676 22.2069 13.0218L22.2069 13.0218L22.2028 12.989C22.193 12.8992 22.1806 12.8059 22.1646 12.709C22.1557 12.6432 22.1441 12.5765 22.1317 12.5089C22.1281 12.4876 22.1234 12.4663 22.1187 12.445L22.1187 12.4449C22.1152 12.4289 22.1116 12.4129 22.1086 12.3969C22.1975 12.5498 22.2517 12.7134 22.2606 12.885L22.2605 12.8817L22.2605 12.8817L22.2603 12.8784C22.2504 12.7092 22.1964 12.5478 22.1086 12.3968C22.0259 12.2572 21.9148 12.1283 21.7734 12.018C21.4747 11.7877 21.0746 11.6606 20.6594 11.6632C20.245 11.665 19.8476 11.7984 19.5524 12.0313C19.2572 12.267 19.0883 12.5844 19.0803 12.9178V15.4153C19.0803 15.49 19.0412 15.5602 18.9772 15.5994L15.5656 17.6861C15.4225 17.7732 15.2375 17.6701 15.2375 17.5021V13.0067C15.2411 12.0874 15.5923 11.1902 16.244 10.4345C16.8957 9.67963 17.8178 9.10081 18.8883 8.7754C18.9143 8.76708 18.9412 8.76089 18.9681 8.75469C18.9872 8.75029 19.0064 8.74589 19.0252 8.74072C19.043 8.74295 19.0601 8.74584 19.0772 8.74872C19.0943 8.75161 19.1114 8.7545 19.1292 8.75673L19.1294 8.75676L19.1528 8.74933C19.2571 8.71619 19.362 8.68283 19.467 8.65638ZM15.2828 26.3782C15.2828 26.3782 15.2828 26.3782 15.2828 26.3782C15.3008 26.3808 15.3186 26.3838 15.3364 26.3868C15.3557 26.39 15.375 26.3932 15.3949 26.396C15.4171 26.3895 15.4395 26.3842 15.4619 26.3788C15.4887 26.3724 15.5154 26.366 15.5416 26.3578C16.6103 26.0315 17.5305 25.4518 18.1805 24.6978C18.8304 23.9421 19.1798 23.0476 19.1834 22.1291V17.6338C19.1834 17.4657 18.9993 17.3617 18.8553 17.4497L15.4438 19.5356C15.3797 19.5747 15.3406 19.6441 15.3406 19.7196L15.3389 22.2136C15.3371 22.5284 15.1921 22.8307 14.9316 23.0645C14.6702 23.2974 14.311 23.4459 13.9225 23.4806C13.5339 23.5153 13.1427 23.4326 12.8244 23.2512C12.6013 23.1241 12.4279 22.9507 12.3123 22.7542C12.2625 22.6715 12.2216 22.5853 12.1958 22.4937C12.1799 22.4238 12.1701 22.3565 12.1639 22.3068L12.1639 22.306C12.1701 22.3558 12.1799 22.4234 12.1959 22.4936C12.2217 22.5852 12.2626 22.6715 12.3124 22.7541C12.3081 22.7322 12.3032 22.7105 12.2983 22.6887L12.2983 22.6887C12.2911 22.6566 12.2839 22.6246 12.2786 22.5923C12.2661 22.5248 12.2555 22.4572 12.2457 22.3905C12.2306 22.2936 12.2181 22.2002 12.2075 22.1095C12.2003 22.05 12.195 21.9975 12.1888 21.9362L12.1879 21.9264L12.1879 21.9261C12.1829 21.87 12.1788 21.8225 12.1746 21.7797C12.1701 21.7326 12.1674 21.6819 12.1657 21.6365C12.1488 21.3698 12.1514 21.2053 12.1514 21.2053L11.9709 8.89195C11.9701 8.81459 11.9469 8.73902 11.9052 8.67411C11.8634 8.60832 11.8038 8.55675 11.7344 8.52207C11.6642 8.4874 11.586 8.47317 11.5086 8.48117C11.4313 8.4874 11.3566 8.51496 11.2943 8.56208L8.28467 10.8293C8.2331 10.8676 8.19132 10.9191 8.16198 10.9778C8.13263 11.0347 8.11841 11.0996 8.11841 11.1645V21.2C8.11841 24.1723 10.5164 26.644 13.5145 26.6574C14.0097 26.6591 14.5031 26.5969 14.9815 26.4698C15.0837 26.4422 15.1832 26.4102 15.2828 26.3782ZM11.1681 23.1534V23.2289V23.2298C11.169 23.2325 11.1699 23.2369 11.1699 23.2405C11.1681 23.1871 11.1681 23.1534 11.1681 23.1534Z" fill="white"/>
</svg>
